<svg width="208" height="30" viewBox="0 0 208 30" fill="none" xmlns="http://www.w3.org/2000/svg">
<g clip-path="url(#clip0_963_7590)">
<g clip-path="url(#clip1_963_7590)">
<path d="M108.343 23.4159H96.3711V0.565186H106.886C111.65 0.565186 114.227 3.5269 114.227 7.03802C114.227 8.60729 113.433 10.2271 112.216 11.4395C114.015 12.3773 115.554 14.5149 115.554 16.7473C115.554 20.6499 112.507 23.4159 108.343 23.4159ZM102.024 18.8217H107.566C108.944 18.8217 109.835 17.8019 109.835 16.5736V16.5262C109.835 15.279 108.928 14.2781 107.566 14.2781H102.024V18.8217ZM102.024 9.67767H106.156C107.629 9.67767 108.52 8.6578 108.52 7.42955C108.52 6.18234 107.695 5.18142 106.156 5.18142H102.024C102.024 5.17826 102.024 9.67767 102.024 9.67767Z" fill="#2DBE64"/>
<path d="M44.7175 23.4159L36.4853 11.7332L44.4583 0.565186H37.8162L31.465 9.72503V0.565186H25.6797V23.4159H31.465V14.0476L37.832 23.4159H44.7175Z" fill="#2DBE64"/>
<path d="M148.657 0.565186V17.4609C148.657 18.2218 148.315 18.8028 147.604 18.8028C146.599 18.8028 146.551 17.6535 146.551 16.8925H141.123C141.123 20.5489 143.229 23.9811 147.765 23.9811C151.72 23.9811 154.423 20.7762 154.423 16.8294V5.71188H162.247V23.4159H168.033V0.565186H148.657Z" fill="#2DBE64"/>
<path d="M70.7069 0.565186L62.7022 17.4261C61.229 20.631 58.1657 23.9811 52.9652 23.9811C48.5424 23.9811 44.3789 21.294 43.6328 15.3896H49.2379C49.6584 17.7513 51.3434 18.8028 53.2244 18.8028C54.8273 18.8028 55.9148 17.8492 56.2214 17.2967L46.6772 0.565186H53.3351L59.3954 11.6164L64.3873 0.565186H70.7069Z" fill="#2DBE64"/>
<path d="M15.3896 23.4159H0V0.565186H13.9512C18.7154 0.565186 21.2919 3.5269 21.2919 7.03802C21.2919 8.60729 20.4984 10.2271 19.2812 11.4395C21.0801 12.3773 22.6197 14.5149 22.6197 16.7473C22.6165 20.6499 19.5563 23.4159 15.3896 23.4159ZM5.65254 18.8217H14.6277C16.0061 18.8217 16.8976 17.8019 16.8976 16.5736V16.5262C16.8976 15.279 15.9903 14.2781 14.6277 14.2781H5.65254V18.8217ZM5.65254 9.67767H13.2177C14.6909 9.67767 15.5824 8.6578 15.5824 7.42955C15.5824 6.18234 14.7573 5.18142 13.2177 5.18142H5.65254V9.67767Z" fill="#2DBE64"/>
<path d="M87.2988 14.8402C86.4073 16.9272 84.4947 18.4018 81.8233 18.4018C78.0644 18.4018 75.7946 15.4716 75.7946 11.9921C75.7946 8.51256 78.0644 5.58242 81.8233 5.58242C84.4979 5.58242 86.4073 7.07275 87.2988 9.17563H93.5204C92.3539 3.95001 87.9627 0 81.8233 0C74.6122 0 69.8164 5.43718 69.8164 11.9921V12.0079C69.8164 18.5786 74.6122 24 81.8233 24C87.9627 24 92.3539 20.0689 93.5204 14.8402H87.2988Z" fill="#2DBE64"/>
<path d="M134.317 0.565186L124.675 13.7729V0.565186H118.893V23.4159H124.156L133.814 10.2271V23.4159H139.6V0.565186H134.317Z" fill="#2DBE64"/>
<path d="M174.58 0.565186V16.0021C174.58 17.4261 173.771 18.285 172.295 18.285H170.594V23.4001H173.657C177.691 23.4001 180.366 20.8583 180.366 16.2137V5.69609H186.214V23.4001H191.999V0.565186H174.58Z" fill="#2DBE64"/>
</g>
</g>
<path d="M166.065 22.6666C166.029 22.1155 166.447 21.6396 166.998 21.6036L205.915 19.0652C206.466 19.0293 206.942 19.4469 206.978 19.998L207.369 25.9853C207.405 26.5364 206.987 27.0123 206.436 27.0482L167.519 29.5867C166.967 29.6226 166.492 29.205 166.456 28.6539L166.065 22.6666Z" fill="#E96B5C"/>
<path d="M203.664 21.1665C203.902 21.151 204.128 21.1968 204.339 21.3045L204.338 21.3046C204.499 21.3813 204.636 21.4786 204.747 21.5979L204.719 21.1682L205.356 21.1266L205.59 24.7196L204.953 24.7611L204.925 24.3304C204.83 24.4641 204.709 24.5816 204.559 24.6821L204.558 24.6822C204.362 24.8115 204.145 24.8843 203.908 24.8998C203.459 24.929 203.069 24.7693 202.741 24.4249L202.74 24.424C202.416 24.0798 202.239 23.6491 202.205 23.1357C202.172 22.6224 202.292 22.1723 202.568 21.789L202.569 21.7889C202.85 21.4047 203.215 21.1958 203.664 21.1665ZM203.788 21.8131C203.491 21.8326 203.256 21.9626 203.08 22.2057C202.904 22.4502 202.826 22.7451 202.849 23.0938C202.871 23.4426 202.987 23.7256 203.194 23.9452C203.399 24.1634 203.649 24.2618 203.946 24.2426C204.239 24.2234 204.472 24.0936 204.648 23.8504C204.824 23.6058 204.902 23.3102 204.88 22.9613C204.857 22.6126 204.741 22.3304 204.534 22.1109C204.329 21.8924 204.081 21.794 203.788 21.8131Z" fill="white" stroke="white" stroke-width="0.1"/>
<path d="M200.667 21.4333C200.996 21.4118 201.276 21.5088 201.504 21.7252C201.73 21.9379 201.855 22.2143 201.877 22.5503C201.896 22.8444 201.832 23.1045 201.684 23.3282L201.615 23.4217C201.418 23.6628 201.151 23.7935 200.822 23.815L200.392 23.843L200.471 25.0533L199.857 25.0934L199.623 21.5014L200.667 21.4333ZM200.35 23.2028L200.776 23.175C200.944 23.164 201.066 23.1039 201.151 22.9988C201.241 22.8881 201.281 22.7527 201.27 22.5898C201.26 22.427 201.203 22.3003 201.101 22.2055L201.099 22.2046C201.001 22.1082 200.871 22.063 200.704 22.0738L200.279 22.1016L200.35 23.2028Z" fill="white" stroke="white" stroke-width="0.1"/>
<path d="M196.909 21.6781L196.924 21.7065L197.927 23.5621L198.686 21.5915L198.698 21.5614L199.384 21.5167L199.355 21.59L198.274 24.387C198.158 24.6997 198.028 24.9312 197.883 25.076C197.735 25.2227 197.549 25.3032 197.327 25.3178C197.233 25.3239 197.116 25.3211 196.979 25.3101L196.936 25.3071L196.894 24.6678L196.953 24.6747C197.024 24.6826 197.112 24.683 197.219 24.676C197.316 24.6697 197.395 24.6419 197.459 24.5948L197.505 24.5507C197.548 24.5015 197.588 24.4309 197.626 24.3373L196.247 21.7918L196.21 21.7237L196.909 21.6781Z" fill="white" stroke="white" stroke-width="0.1"/>
<path d="M196.134 21.7285L196.177 22.3795L195.266 22.4389L195.457 25.38L194.843 25.42L194.652 22.479L193.745 22.5381L193.703 21.8871L196.134 21.7285Z" fill="white" stroke="white" stroke-width="0.1"/>
<path d="M191.522 21.9584C191.76 21.9428 191.985 21.9887 192.196 22.0964L192.195 22.0965C192.356 22.1732 192.493 22.2705 192.604 22.3898L192.576 21.9601L193.213 21.9185L193.448 25.5114L192.81 25.553L192.782 25.1223C192.688 25.256 192.566 25.3734 192.417 25.474L192.416 25.474C192.22 25.6034 192.003 25.6761 191.765 25.6916C191.316 25.7209 190.926 25.5612 190.598 25.2168L190.597 25.2159C190.274 24.8716 190.096 24.4409 190.063 23.9276C190.03 23.4143 190.149 22.9642 190.425 22.5809L190.426 22.5808C190.707 22.1966 191.073 21.9876 191.522 21.9584ZM191.645 22.605C191.348 22.6245 191.113 22.7544 190.938 22.9976C190.762 23.242 190.683 23.537 190.706 23.8857C190.729 24.2345 190.845 24.5175 191.051 24.7371C191.257 24.9553 191.506 25.0537 191.804 25.0344C192.097 25.0153 192.33 24.8855 192.505 24.6422C192.682 24.3977 192.76 24.102 192.737 23.7532C192.714 23.4045 192.598 23.1222 192.392 22.9028C192.186 22.6842 191.938 22.5859 191.645 22.605Z" fill="white" stroke="white" stroke-width="0.1"/>
<path d="M188.526 22.2254C188.855 22.2039 189.136 22.3009 189.363 22.5173C189.59 22.73 189.714 23.0065 189.736 23.3424C189.755 23.6365 189.691 23.8967 189.543 24.1203L189.475 24.2138C189.277 24.4549 189.011 24.5856 188.681 24.6071L188.251 24.6351L188.33 25.8454L187.717 25.8855L187.482 22.2935L188.526 22.2254ZM188.21 23.9949L188.636 23.9671C188.803 23.9561 188.926 23.896 189.011 23.791C189.1 23.6802 189.14 23.5448 189.13 23.3819C189.119 23.2191 189.062 23.0924 188.96 22.9977L188.959 22.9967C188.861 22.9003 188.731 22.8551 188.564 22.8659L188.138 22.8937L188.21 23.9949Z" fill="white" stroke="white" stroke-width="0.1"/>
<path d="M187.117 22.3169L187.159 22.9679L186.248 23.0273L186.44 25.9683L185.826 26.0084L185.634 23.0674L184.728 23.1265L184.685 22.4755L187.117 22.3169Z" fill="white" stroke="white" stroke-width="0.1"/>
<path d="M183.129 22.5176C183.44 22.4973 183.73 22.5612 183.995 22.7107L183.994 22.7107C184.259 22.8565 184.475 23.0652 184.641 23.335L184.665 23.3736L184.627 23.4014L184.202 23.7159L184.159 23.7471L184.13 23.702C183.886 23.3199 183.567 23.1477 183.172 23.1734C182.879 23.1925 182.64 23.3232 182.453 23.5687C182.266 23.8147 182.183 24.1048 182.204 24.4412C182.226 24.7777 182.346 25.0545 182.564 25.2741C182.781 25.4932 183.036 25.5917 183.328 25.5726C183.724 25.5467 184.017 25.3336 184.21 24.923L184.232 24.8746L184.279 24.9009L184.742 25.1575L184.782 25.1793L184.764 25.2216C184.634 25.5105 184.448 25.7464 184.205 25.9284L184.204 25.9285C183.96 26.1076 183.682 26.2071 183.371 26.2275C182.966 26.2539 182.604 26.1395 182.288 25.8851L182.155 25.7666C181.809 25.427 181.619 24.9977 181.586 24.4816C181.552 23.9653 181.684 23.516 181.983 23.1374L182.1 23.0026C182.38 22.7066 182.723 22.544 183.129 22.5176Z" fill="white" stroke="white" stroke-width="0.1"/>
<path d="M178.798 22.8596L178.955 25.2598L180.464 22.7725L180.477 22.7501L181.003 22.7158L181.237 26.3078L180.622 26.3479L180.465 23.9419L178.951 26.4353L178.938 26.4577L178.414 26.4919L178.179 22.9L178.798 22.8596Z" fill="white" stroke="white" stroke-width="0.1"/>
<path d="M177.811 22.9241L177.854 23.5751L176.569 23.6589L176.761 26.5999L176.142 26.6402L175.908 23.0483L177.811 22.9241Z" fill="white" stroke="white" stroke-width="0.1"/>
<path d="M173.428 23.1388C173.666 23.1233 173.891 23.1691 174.103 23.2768L174.102 23.2769C174.263 23.3536 174.399 23.4509 174.51 23.5702L174.482 23.1405L175.119 23.0989L175.354 26.6919L174.717 26.7334L174.688 26.3027C174.594 26.4364 174.472 26.5539 174.323 26.6544L174.322 26.6545C174.126 26.7838 173.909 26.8566 173.672 26.8721C173.223 26.9013 172.833 26.7416 172.504 26.3972L172.503 26.3963C172.18 26.052 172.003 25.6214 171.969 25.108C171.936 24.5947 172.056 24.1446 172.332 23.7613L172.332 23.7612C172.613 23.377 172.979 23.1681 173.428 23.1388ZM173.551 23.7854C173.254 23.8049 173.019 23.9349 172.844 24.178C172.668 24.4224 172.59 24.7174 172.612 25.0661C172.635 25.4149 172.751 25.6979 172.958 25.9175C173.163 26.1357 173.413 26.2341 173.71 26.2148C174.003 26.1957 174.236 26.0659 174.411 25.8226C174.588 25.5781 174.666 25.2825 174.643 24.9336C174.62 24.5849 174.505 24.3027 174.298 24.0832C174.092 23.8646 173.845 23.7663 173.551 23.7854Z" fill="white" stroke="white" stroke-width="0.1"/>
<path d="M168.626 23.5229L168.642 23.5444L169.794 25.0654L170.745 23.4072L170.758 23.3838L171.305 23.3481L171.54 26.9401L170.921 26.9805L170.765 24.593L169.908 26.1002L169.871 26.1662L169.825 26.1056L168.77 24.7182L168.926 27.1106L168.312 27.1506L168.078 23.5586L168.626 23.5229Z" fill="white" stroke="white" stroke-width="0.1"/>
<defs>
<clipPath id="clip0_963_7590">
<rect width="192" height="24" fill="white"/>
</clipPath>
<clipPath id="clip1_963_7590">
<rect width="192" height="24" fill="white"/>
</clipPath>
</defs>
</svg>
