<svg width="192" height="24" viewBox="0 0 192 24" fill="none" xmlns="http://www.w3.org/2000/svg">
<g clip-path="url(#clip0_189_1613)">
<path d="M108.343 23.4159H96.3711V0.565186H106.886C111.65 0.565186 114.227 3.5269 114.227 7.03802C114.227 8.60729 113.433 10.2271 112.216 11.4395C114.015 12.3773 115.554 14.5149 115.554 16.7473C115.554 20.6499 112.507 23.4159 108.343 23.4159ZM102.024 18.8217H107.566C108.944 18.8217 109.835 17.8019 109.835 16.5736V16.5262C109.835 15.279 108.928 14.2781 107.566 14.2781H102.024V18.8217ZM102.024 9.67767H106.156C107.629 9.67767 108.52 8.6578 108.52 7.42955C108.52 6.18234 107.695 5.18142 106.156 5.18142H102.024C102.024 5.17826 102.024 9.67767 102.024 9.67767Z" fill="#2DBE64"/>
<path d="M44.7175 23.4159L36.4853 11.7332L44.4583 0.565186H37.8162L31.465 9.72503V0.565186H25.6797V23.4159H31.465V14.0476L37.832 23.4159H44.7175Z" fill="#2DBE64"/>
<path d="M148.658 0.565186V17.4609C148.658 18.2218 148.316 18.8028 147.605 18.8028C146.6 18.8028 146.552 17.6535 146.552 16.8925H141.124C141.124 20.5489 143.23 23.9811 147.766 23.9811C151.721 23.9811 154.424 20.7762 154.424 16.8294V5.71188H162.248V23.4159H168.034V0.565186H148.658Z" fill="#2DBE64"/>
<path d="M70.7069 0.565186L62.7022 17.4261C61.229 20.631 58.1657 23.9811 52.9652 23.9811C48.5424 23.9811 44.3789 21.294 43.6328 15.3896H49.2379C49.6584 17.7513 51.3434 18.8028 53.2244 18.8028C54.8273 18.8028 55.9148 17.8492 56.2214 17.2967L46.6772 0.565186H53.3351L59.3954 11.6164L64.3873 0.565186H70.7069Z" fill="#2DBE64"/>
<path d="M15.3896 23.4159H0V0.565186H13.9512C18.7154 0.565186 21.2919 3.5269 21.2919 7.03802C21.2919 8.60729 20.4984 10.2271 19.2812 11.4395C21.0801 12.3773 22.6197 14.5149 22.6197 16.7473C22.6165 20.6499 19.5563 23.4159 15.3896 23.4159ZM5.65254 18.8217H14.6277C16.0061 18.8217 16.8976 17.8019 16.8976 16.5736V16.5262C16.8976 15.279 15.9903 14.2781 14.6277 14.2781H5.65254V18.8217ZM5.65254 9.67767H13.2177C14.6909 9.67767 15.5824 8.6578 15.5824 7.42955C15.5824 6.18234 14.7573 5.18142 13.2177 5.18142H5.65254V9.67767Z" fill="#2DBE64"/>
<path d="M87.2988 14.8402C86.4073 16.9272 84.4947 18.4018 81.8233 18.4018C78.0644 18.4018 75.7946 15.4716 75.7946 11.9921C75.7946 8.51256 78.0644 5.58242 81.8233 5.58242C84.4979 5.58242 86.4073 7.07275 87.2988 9.17563H93.5204C92.3539 3.95001 87.9627 0 81.8233 0C74.6122 0 69.8164 5.43718 69.8164 11.9921V12.0079C69.8164 18.5786 74.6122 24 81.8233 24C87.9627 24 92.3539 20.0689 93.5204 14.8402H87.2988Z" fill="#2DBE64"/>
<path d="M134.317 0.565186L124.675 13.7729V0.565186H118.893V23.4159H124.156L133.814 10.2271V23.4159H139.6V0.565186H134.317Z" fill="#2DBE64"/>
<path d="M174.581 0.565186V16.0021C174.581 17.4261 173.772 18.285 172.296 18.285H170.595V23.4001H173.658C177.692 23.4001 180.367 20.8583 180.367 16.2137V5.69609H186.215V23.4001H192V0.565186H174.581Z" fill="#2DBE64"/>
</g>
<defs>
<clipPath id="clip0_189_1613">
<rect width="192" height="24" fill="white"/>
</clipPath>
</defs>
</svg>
