<svg width="133" height="19" viewBox="0 0 133 19" fill="none" xmlns="http://www.w3.org/2000/svg">
<path d="M69.0887 14.83H61.4543V0.357951H68.1593C71.1974 0.357951 72.8404 2.2337 72.8404 4.45741C72.8404 5.45128 72.3344 6.47715 71.5582 7.24505C72.7053 7.83897 73.6871 9.19279 73.6871 10.6066C73.6871 13.0783 71.7437 14.83 69.0887 14.83ZM65.0588 11.9204H68.5928C69.4717 11.9204 70.0402 11.2745 70.0402 10.4966V10.4666C70.0402 9.67673 69.4616 9.04281 68.5928 9.04281H65.0588V11.9204ZM65.0588 6.12919H67.6936C68.6331 6.12919 69.2016 5.48328 69.2016 4.70538C69.2016 3.91548 68.6754 3.28157 67.6936 3.28157H65.0588C65.0588 3.27957 65.0588 6.12919 65.0588 6.12919Z" fill="#2DBE64"/>
<path d="M28.5154 14.83L23.2658 7.43102L28.3501 0.357951H24.1145L20.0645 6.15919V0.357951H16.3753V14.83H20.0645V8.89683L24.1246 14.83H28.5154Z" fill="#2DBE64"/>
<path d="M94.7961 0.357951V11.0585C94.7961 11.5405 94.5784 11.9084 94.1248 11.9084C93.4837 11.9084 93.4535 11.1805 93.4535 10.6986H89.9921C89.9921 13.0143 91.3347 15.188 94.2276 15.188C96.7495 15.188 98.4732 13.1583 98.4732 10.6586V3.61752H103.463V14.83H107.152V0.357951H94.7961Z" fill="#2DBE64"/>
<path d="M45.0887 0.357951L39.9843 11.0365C39.0449 13.0663 37.0914 15.188 33.7752 15.188C30.9549 15.188 28.2999 13.4862 27.8241 9.74672H31.3984C31.6665 11.2425 32.741 11.9084 33.9405 11.9084C34.9626 11.9084 35.6561 11.3045 35.8516 10.9546L29.7655 0.357951H34.0111L37.8756 7.35703L41.0588 0.357951H45.0887Z" fill="#2DBE64"/>
<path d="M9.81365 14.83H0V0.357951H8.8964C11.9344 0.357951 13.5774 2.2337 13.5774 4.45741C13.5774 5.45128 13.0714 6.47715 12.2953 7.24505C13.4424 7.83897 14.4241 9.19279 14.4241 10.6066C14.4221 13.0783 12.4707 14.83 9.81365 14.83ZM3.60452 11.9204H9.32781C10.2068 11.9204 10.7753 11.2745 10.7753 10.4966V10.4666C10.7753 9.67673 10.1967 9.04281 9.32781 9.04281H3.60452V11.9204ZM3.60452 6.12919H8.42869C9.36813 6.12919 9.93663 5.48328 9.93663 4.70538C9.93663 3.91548 9.41046 3.28157 8.42869 3.28157H3.60452V6.12919Z" fill="#2DBE64"/>
<path d="M55.6685 9.39876C55.1 10.7206 53.8804 11.6545 52.1769 11.6545C49.7799 11.6545 48.3325 9.79871 48.3325 7.595C48.3325 5.39129 49.7799 3.53553 52.1769 3.53553C53.8824 3.53553 55.1 4.47941 55.6685 5.81123H59.6359C58.892 2.50167 56.0919 0 52.1769 0C47.5785 0 44.5203 3.44355 44.5203 7.595V7.605C44.5203 11.7665 47.5785 15.2 52.1769 15.2C56.0919 15.2 58.892 12.7103 59.6359 9.39876H55.6685Z" fill="#2DBE64"/>
<path d="M85.6515 0.357951L79.5028 8.72285V0.357951H75.8157V14.83H79.1722L85.331 6.47715V14.83H89.0201V0.357951H85.6515Z" fill="#2DBE64"/>
<path d="M111.327 0.357951V10.1347C111.327 11.0365 110.811 11.5805 109.87 11.5805H108.785V14.82H110.738C113.311 14.82 115.016 13.2103 115.016 10.2686V3.60752H118.746V14.82H122.435V0.357951H111.327Z" fill="#2DBE64"/>
<path d="M105.896 14.3556C105.874 14.0066 106.14 13.7052 106.491 13.6824L131.308 12.0748C131.66 12.052 131.963 12.3165 131.986 12.6655L132.235 16.4575C132.258 16.8065 131.992 17.1079 131.64 17.1307L106.823 18.7383C106.472 18.7611 106.168 18.4966 106.146 18.1476L105.896 14.3556Z" fill="#E96B5C"/>
<mask id="path-3-outside-1_1054_14494" maskUnits="userSpaceOnUse" x="106.214" y="12.4141" width="25" height="5" fill="black">
<rect fill="white" x="106.214" y="12.4141" width="25" height="5"/>
<path d="M130.025 15.7387C129.749 15.7566 129.509 15.6595 129.306 15.4475C129.105 15.2354 128.994 14.9699 128.973 14.6513C128.952 14.3327 129.027 14.0552 129.199 13.819C129.372 13.5825 129.598 13.4553 129.874 13.4374C130.02 13.428 130.158 13.4561 130.288 13.5217C130.42 13.5843 130.524 13.6694 130.6 13.777L130.578 13.4363L130.921 13.4141L131.066 15.6268L130.723 15.649L130.701 15.3082C130.639 15.4248 130.547 15.5241 130.424 15.6062C130.304 15.6851 130.171 15.7292 130.025 15.7387ZM130.054 15.3857C130.25 15.373 130.407 15.2858 130.525 15.1241C130.642 14.9624 130.693 14.768 130.679 14.5408C130.664 14.3137 130.587 14.1275 130.45 13.9823C130.312 13.8372 130.145 13.771 129.949 13.7837C129.749 13.7966 129.591 13.8839 129.474 14.0456C129.356 14.2073 129.305 14.4017 129.32 14.6289C129.335 14.856 129.411 15.0422 129.549 15.1874C129.686 15.3325 129.855 15.3986 130.054 15.3857Z"/>
<path d="M128.473 13.783C128.611 13.9117 128.687 14.0789 128.701 14.2845C128.714 14.4902 128.661 14.6667 128.541 14.8143C128.421 14.9597 128.26 15.039 128.058 15.052L127.752 15.0719L127.803 15.8383L127.474 15.8595L127.329 13.6475L127.963 13.6064C128.165 13.5933 128.335 13.6522 128.473 13.783ZM128.295 14.5861C128.358 14.5091 128.385 14.4155 128.378 14.3054C128.371 14.1953 128.331 14.1072 128.259 14.0409C128.189 13.9725 128.097 13.9419 127.983 13.9493L127.68 13.9689L127.73 14.7291L128.033 14.7095C128.147 14.7021 128.234 14.661 128.295 14.5861Z"/>
<path d="M125.612 15.9987L125.59 15.6591C125.637 15.6644 125.695 15.6648 125.764 15.6603C125.832 15.6559 125.889 15.6366 125.935 15.6023C125.982 15.5659 126.022 15.5028 126.058 15.4129L125.171 13.7871L125.547 13.7627L126.219 14.9988L126.728 13.6862L127.095 13.6624L126.406 15.4341C126.332 15.6308 126.252 15.7727 126.163 15.8597C126.075 15.9468 125.964 15.9947 125.829 16.0034C125.771 16.0072 125.699 16.0056 125.612 15.9987Z"/>
<path d="M124.277 16.0664L124.155 14.2033L123.577 14.2407L123.554 13.8918L125.041 13.7955L125.064 14.1444L124.483 14.182L124.606 16.0451L124.277 16.0664Z"/>
<path d="M122.283 16.2402C122.007 16.2581 121.767 16.1611 121.564 15.949C121.363 15.7369 121.252 15.4715 121.231 15.1528C121.21 14.8342 121.285 14.5567 121.457 14.3205C121.63 14.084 121.856 13.9569 122.132 13.939C122.278 13.9295 122.416 13.9576 122.546 14.0233C122.678 14.0858 122.782 14.1709 122.858 14.2785L122.836 13.9378L123.179 13.9156L123.324 16.1283L122.981 16.1505L122.959 15.8098C122.897 15.9263 122.805 16.0257 122.682 16.1077C122.562 16.1866 122.429 16.2307 122.283 16.2402ZM122.312 15.8872C122.508 15.8745 122.665 15.7873 122.783 15.6256C122.9 15.4639 122.952 15.2695 122.937 15.0423C122.922 14.8152 122.845 14.629 122.708 14.4838C122.57 14.3387 122.403 14.2725 122.207 14.2852C122.007 14.2981 121.849 14.3854 121.732 14.5471C121.614 14.7088 121.563 14.9032 121.578 15.1304C121.593 15.3575 121.669 15.5437 121.807 15.6889C121.944 15.834 122.113 15.9001 122.312 15.8872Z"/>
<path d="M120.731 14.2847C120.869 14.4134 120.945 14.5806 120.959 14.7862C120.972 14.9918 120.919 15.1684 120.799 15.3159C120.679 15.4614 120.518 15.5406 120.316 15.5537L120.01 15.5735L120.061 16.3399L119.732 16.3612L119.587 14.1492L120.221 14.1081C120.423 14.095 120.593 14.1539 120.731 14.2847ZM120.553 15.0878C120.616 15.0108 120.643 14.9172 120.636 14.8071C120.629 14.697 120.589 14.6088 120.517 14.5426C120.447 14.4741 120.355 14.4436 120.241 14.451L119.938 14.4706L119.988 15.2308L120.291 15.2112C120.405 15.2038 120.492 15.1627 120.553 15.0878Z"/>
<path d="M118.527 16.439L118.405 14.5759L117.827 14.6133L117.804 14.2644L119.291 14.1681L119.313 14.517L118.733 14.5546L118.855 16.4177L118.527 16.439Z"/>
<path d="M116.929 16.58C116.643 16.5985 116.393 16.5042 116.178 16.297C115.964 16.0877 115.846 15.8231 115.825 15.5032C115.804 15.1834 115.886 14.9069 116.072 14.6738C116.257 14.4386 116.493 14.3117 116.779 14.2931C116.972 14.2807 117.15 14.3202 117.314 14.4118C117.477 14.5013 117.611 14.6293 117.714 14.7958L117.442 14.9949C117.281 14.7446 117.068 14.628 116.802 14.6452C116.606 14.6579 116.445 14.7455 116.321 14.9079C116.196 15.0703 116.141 15.2616 116.156 15.4818C116.17 15.702 116.25 15.8845 116.395 16.0295C116.539 16.1745 116.71 16.2406 116.906 16.2279C117.172 16.2107 117.368 16.0676 117.495 15.7987L117.79 15.961C117.71 16.1393 117.594 16.2845 117.444 16.3964C117.294 16.5063 117.122 16.5675 116.929 16.58Z"/>
<path d="M114.086 16.7268L113.8 16.7453L113.655 14.5332L113.986 14.5118L114.09 16.1007L115.105 14.4393L115.391 14.4208L115.537 16.6328L115.209 16.6541L115.104 15.062L114.086 16.7268Z"/>
<path d="M113.357 14.5526L113.38 14.9015L112.56 14.9546L112.683 16.8177L112.352 16.8392L112.206 14.6271L113.357 14.5526Z"/>
<path d="M110.745 16.9878C110.468 17.0057 110.229 16.9086 110.025 16.6966C109.825 16.4845 109.714 16.219 109.693 15.9004C109.672 15.5818 109.747 15.3043 109.918 15.0681C110.092 14.8316 110.317 14.7044 110.594 14.6865C110.74 14.6771 110.878 14.7052 111.007 14.7708C111.139 14.8334 111.244 14.9185 111.32 15.0261L111.298 14.6854L111.64 14.6632L111.786 16.8759L111.443 16.8981L111.421 16.5573C111.359 16.6739 111.267 16.7732 111.144 16.8553C111.024 16.9342 110.891 16.9783 110.745 16.9878ZM110.773 16.6348C110.97 16.6221 111.127 16.5349 111.245 16.3732C111.362 16.2115 111.413 16.0171 111.398 15.7899C111.383 15.5628 111.307 15.3766 111.17 15.2314C111.032 15.0863 110.865 15.0201 110.668 15.0328C110.469 15.0457 110.311 15.133 110.193 15.2947C110.076 15.4564 110.025 15.6508 110.039 15.878C110.054 16.1051 110.131 16.2913 110.268 16.4365C110.406 16.5816 110.574 16.6477 110.773 16.6348Z"/>
<path d="M107.214 14.9504L107.514 14.9309L108.278 15.9327L108.908 14.8406L109.208 14.8212L109.353 17.0332L109.022 17.0546L108.918 15.4688L108.319 16.5151L107.583 15.5522L107.687 17.1411L107.359 17.1624L107.214 14.9504Z"/>
</mask>
<path d="M130.025 15.7387C129.749 15.7566 129.509 15.6595 129.306 15.4475C129.105 15.2354 128.994 14.9699 128.973 14.6513C128.952 14.3327 129.027 14.0552 129.199 13.819C129.372 13.5825 129.598 13.4553 129.874 13.4374C130.02 13.428 130.158 13.4561 130.288 13.5217C130.42 13.5843 130.524 13.6694 130.6 13.777L130.578 13.4363L130.921 13.4141L131.066 15.6268L130.723 15.649L130.701 15.3082C130.639 15.4248 130.547 15.5241 130.424 15.6062C130.304 15.6851 130.171 15.7292 130.025 15.7387ZM130.054 15.3857C130.25 15.373 130.407 15.2858 130.525 15.1241C130.642 14.9624 130.693 14.768 130.679 14.5408C130.664 14.3137 130.587 14.1275 130.45 13.9823C130.312 13.8372 130.145 13.771 129.949 13.7837C129.749 13.7966 129.591 13.8839 129.474 14.0456C129.356 14.2073 129.305 14.4017 129.32 14.6289C129.335 14.856 129.411 15.0422 129.549 15.1874C129.686 15.3325 129.855 15.3986 130.054 15.3857Z" fill="white"/>
<path d="M128.473 13.783C128.611 13.9117 128.687 14.0789 128.701 14.2845C128.714 14.4902 128.661 14.6667 128.541 14.8143C128.421 14.9597 128.26 15.039 128.058 15.052L127.752 15.0719L127.803 15.8383L127.474 15.8595L127.329 13.6475L127.963 13.6064C128.165 13.5933 128.335 13.6522 128.473 13.783ZM128.295 14.5861C128.358 14.5091 128.385 14.4155 128.378 14.3054C128.371 14.1953 128.331 14.1072 128.259 14.0409C128.189 13.9725 128.097 13.9419 127.983 13.9493L127.68 13.9689L127.73 14.7291L128.033 14.7095C128.147 14.7021 128.234 14.661 128.295 14.5861Z" fill="white"/>
<path d="M125.612 15.9987L125.59 15.6591C125.637 15.6644 125.695 15.6648 125.764 15.6603C125.832 15.6559 125.889 15.6366 125.935 15.6023C125.982 15.5659 126.022 15.5028 126.058 15.4129L125.171 13.7871L125.547 13.7627L126.219 14.9988L126.728 13.6862L127.095 13.6624L126.406 15.4341C126.332 15.6308 126.252 15.7727 126.163 15.8597C126.075 15.9468 125.964 15.9947 125.829 16.0034C125.771 16.0072 125.699 16.0056 125.612 15.9987Z" fill="white"/>
<path d="M124.277 16.0664L124.155 14.2033L123.577 14.2407L123.554 13.8918L125.041 13.7955L125.064 14.1444L124.483 14.182L124.606 16.0451L124.277 16.0664Z" fill="white"/>
<path d="M122.283 16.2402C122.007 16.2581 121.767 16.1611 121.564 15.949C121.363 15.7369 121.252 15.4715 121.231 15.1528C121.21 14.8342 121.285 14.5567 121.457 14.3205C121.63 14.084 121.856 13.9569 122.132 13.939C122.278 13.9295 122.416 13.9576 122.546 14.0233C122.678 14.0858 122.782 14.1709 122.858 14.2785L122.836 13.9378L123.179 13.9156L123.324 16.1283L122.981 16.1505L122.959 15.8098C122.897 15.9263 122.805 16.0257 122.682 16.1077C122.562 16.1866 122.429 16.2307 122.283 16.2402ZM122.312 15.8872C122.508 15.8745 122.665 15.7873 122.783 15.6256C122.9 15.4639 122.952 15.2695 122.937 15.0423C122.922 14.8152 122.845 14.629 122.708 14.4838C122.57 14.3387 122.403 14.2725 122.207 14.2852C122.007 14.2981 121.849 14.3854 121.732 14.5471C121.614 14.7088 121.563 14.9032 121.578 15.1304C121.593 15.3575 121.669 15.5437 121.807 15.6889C121.944 15.834 122.113 15.9001 122.312 15.8872Z" fill="white"/>
<path d="M120.731 14.2847C120.869 14.4134 120.945 14.5806 120.959 14.7862C120.972 14.9918 120.919 15.1684 120.799 15.3159C120.679 15.4614 120.518 15.5406 120.316 15.5537L120.01 15.5735L120.061 16.3399L119.732 16.3612L119.587 14.1492L120.221 14.1081C120.423 14.095 120.593 14.1539 120.731 14.2847ZM120.553 15.0878C120.616 15.0108 120.643 14.9172 120.636 14.8071C120.629 14.697 120.589 14.6088 120.517 14.5426C120.447 14.4741 120.355 14.4436 120.241 14.451L119.938 14.4706L119.988 15.2308L120.291 15.2112C120.405 15.2038 120.492 15.1627 120.553 15.0878Z" fill="white"/>
<path d="M118.527 16.439L118.405 14.5759L117.827 14.6133L117.804 14.2644L119.291 14.1681L119.313 14.517L118.733 14.5546L118.855 16.4177L118.527 16.439Z" fill="white"/>
<path d="M116.929 16.58C116.643 16.5985 116.393 16.5042 116.178 16.297C115.964 16.0877 115.846 15.8231 115.825 15.5032C115.804 15.1834 115.886 14.9069 116.072 14.6738C116.257 14.4386 116.493 14.3117 116.779 14.2931C116.972 14.2807 117.15 14.3202 117.314 14.4118C117.477 14.5013 117.611 14.6293 117.714 14.7958L117.442 14.9949C117.281 14.7446 117.068 14.628 116.802 14.6452C116.606 14.6579 116.445 14.7455 116.321 14.9079C116.196 15.0703 116.141 15.2616 116.156 15.4818C116.17 15.702 116.25 15.8845 116.395 16.0295C116.539 16.1745 116.71 16.2406 116.906 16.2279C117.172 16.2107 117.368 16.0676 117.495 15.7987L117.79 15.961C117.71 16.1393 117.594 16.2845 117.444 16.3964C117.294 16.5063 117.122 16.5675 116.929 16.58Z" fill="white"/>
<path d="M114.086 16.7268L113.8 16.7453L113.655 14.5332L113.986 14.5118L114.09 16.1007L115.105 14.4393L115.391 14.4208L115.537 16.6328L115.209 16.6541L115.104 15.062L114.086 16.7268Z" fill="white"/>
<path d="M113.357 14.5526L113.38 14.9015L112.56 14.9546L112.683 16.8177L112.352 16.8392L112.206 14.6271L113.357 14.5526Z" fill="white"/>
<path d="M110.745 16.9878C110.468 17.0057 110.229 16.9086 110.025 16.6966C109.825 16.4845 109.714 16.219 109.693 15.9004C109.672 15.5818 109.747 15.3043 109.918 15.0681C110.092 14.8316 110.317 14.7044 110.594 14.6865C110.74 14.6771 110.878 14.7052 111.007 14.7708C111.139 14.8334 111.244 14.9185 111.32 15.0261L111.298 14.6854L111.64 14.6632L111.786 16.8759L111.443 16.8981L111.421 16.5573C111.359 16.6739 111.267 16.7732 111.144 16.8553C111.024 16.9342 110.891 16.9783 110.745 16.9878ZM110.773 16.6348C110.97 16.6221 111.127 16.5349 111.245 16.3732C111.362 16.2115 111.413 16.0171 111.398 15.7899C111.383 15.5628 111.307 15.3766 111.17 15.2314C111.032 15.0863 110.865 15.0201 110.668 15.0328C110.469 15.0457 110.311 15.133 110.193 15.2947C110.076 15.4564 110.025 15.6508 110.039 15.878C110.054 16.1051 110.131 16.2913 110.268 16.4365C110.406 16.5816 110.574 16.6477 110.773 16.6348Z" fill="white"/>
<path d="M107.214 14.9504L107.514 14.9309L108.278 15.9327L108.908 14.8406L109.208 14.8212L109.353 17.0332L109.022 17.0546L108.918 15.4688L108.319 16.5151L107.583 15.5522L107.687 17.1411L107.359 17.1624L107.214 14.9504Z" fill="white"/>
<path d="M130.025 15.7387C129.749 15.7566 129.509 15.6595 129.306 15.4475C129.105 15.2354 128.994 14.9699 128.973 14.6513C128.952 14.3327 129.027 14.0552 129.199 13.819C129.372 13.5825 129.598 13.4553 129.874 13.4374C130.02 13.428 130.158 13.4561 130.288 13.5217C130.42 13.5843 130.524 13.6694 130.6 13.777L130.578 13.4363L130.921 13.4141L131.066 15.6268L130.723 15.649L130.701 15.3082C130.639 15.4248 130.547 15.5241 130.424 15.6062C130.304 15.6851 130.171 15.7292 130.025 15.7387ZM130.054 15.3857C130.25 15.373 130.407 15.2858 130.525 15.1241C130.642 14.9624 130.693 14.768 130.679 14.5408C130.664 14.3137 130.587 14.1275 130.45 13.9823C130.312 13.8372 130.145 13.771 129.949 13.7837C129.749 13.7966 129.591 13.8839 129.474 14.0456C129.356 14.2073 129.305 14.4017 129.32 14.6289C129.335 14.856 129.411 15.0422 129.549 15.1874C129.686 15.3325 129.855 15.3986 130.054 15.3857Z" stroke="white" stroke-width="0.2" mask="url(#path-3-outside-1_1054_14494)"/>
<path d="M128.473 13.783C128.611 13.9117 128.687 14.0789 128.701 14.2845C128.714 14.4902 128.661 14.6667 128.541 14.8143C128.421 14.9597 128.26 15.039 128.058 15.052L127.752 15.0719L127.803 15.8383L127.474 15.8595L127.329 13.6475L127.963 13.6064C128.165 13.5933 128.335 13.6522 128.473 13.783ZM128.295 14.5861C128.358 14.5091 128.385 14.4155 128.378 14.3054C128.371 14.1953 128.331 14.1072 128.259 14.0409C128.189 13.9725 128.097 13.9419 127.983 13.9493L127.68 13.9689L127.73 14.7291L128.033 14.7095C128.147 14.7021 128.234 14.661 128.295 14.5861Z" stroke="white" stroke-width="0.2" mask="url(#path-3-outside-1_1054_14494)"/>
<path d="M125.612 15.9987L125.59 15.6591C125.637 15.6644 125.695 15.6648 125.764 15.6603C125.832 15.6559 125.889 15.6366 125.935 15.6023C125.982 15.5659 126.022 15.5028 126.058 15.4129L125.171 13.7871L125.547 13.7627L126.219 14.9988L126.728 13.6862L127.095 13.6624L126.406 15.4341C126.332 15.6308 126.252 15.7727 126.163 15.8597C126.075 15.9468 125.964 15.9947 125.829 16.0034C125.771 16.0072 125.699 16.0056 125.612 15.9987Z" stroke="white" stroke-width="0.2" mask="url(#path-3-outside-1_1054_14494)"/>
<path d="M124.277 16.0664L124.155 14.2033L123.577 14.2407L123.554 13.8918L125.041 13.7955L125.064 14.1444L124.483 14.182L124.606 16.0451L124.277 16.0664Z" stroke="white" stroke-width="0.2" mask="url(#path-3-outside-1_1054_14494)"/>
<path d="M122.283 16.2402C122.007 16.2581 121.767 16.1611 121.564 15.949C121.363 15.7369 121.252 15.4715 121.231 15.1528C121.21 14.8342 121.285 14.5567 121.457 14.3205C121.63 14.084 121.856 13.9569 122.132 13.939C122.278 13.9295 122.416 13.9576 122.546 14.0233C122.678 14.0858 122.782 14.1709 122.858 14.2785L122.836 13.9378L123.179 13.9156L123.324 16.1283L122.981 16.1505L122.959 15.8098C122.897 15.9263 122.805 16.0257 122.682 16.1077C122.562 16.1866 122.429 16.2307 122.283 16.2402ZM122.312 15.8872C122.508 15.8745 122.665 15.7873 122.783 15.6256C122.9 15.4639 122.952 15.2695 122.937 15.0423C122.922 14.8152 122.845 14.629 122.708 14.4838C122.57 14.3387 122.403 14.2725 122.207 14.2852C122.007 14.2981 121.849 14.3854 121.732 14.5471C121.614 14.7088 121.563 14.9032 121.578 15.1304C121.593 15.3575 121.669 15.5437 121.807 15.6889C121.944 15.834 122.113 15.9001 122.312 15.8872Z" stroke="white" stroke-width="0.2" mask="url(#path-3-outside-1_1054_14494)"/>
<path d="M120.731 14.2847C120.869 14.4134 120.945 14.5806 120.959 14.7862C120.972 14.9918 120.919 15.1684 120.799 15.3159C120.679 15.4614 120.518 15.5406 120.316 15.5537L120.01 15.5735L120.061 16.3399L119.732 16.3612L119.587 14.1492L120.221 14.1081C120.423 14.095 120.593 14.1539 120.731 14.2847ZM120.553 15.0878C120.616 15.0108 120.643 14.9172 120.636 14.8071C120.629 14.697 120.589 14.6088 120.517 14.5426C120.447 14.4741 120.355 14.4436 120.241 14.451L119.938 14.4706L119.988 15.2308L120.291 15.2112C120.405 15.2038 120.492 15.1627 120.553 15.0878Z" stroke="white" stroke-width="0.2" mask="url(#path-3-outside-1_1054_14494)"/>
<path d="M118.527 16.439L118.405 14.5759L117.827 14.6133L117.804 14.2644L119.291 14.1681L119.313 14.517L118.733 14.5546L118.855 16.4177L118.527 16.439Z" stroke="white" stroke-width="0.2" mask="url(#path-3-outside-1_1054_14494)"/>
<path d="M116.929 16.58C116.643 16.5985 116.393 16.5042 116.178 16.297C115.964 16.0877 115.846 15.8231 115.825 15.5032C115.804 15.1834 115.886 14.9069 116.072 14.6738C116.257 14.4386 116.493 14.3117 116.779 14.2931C116.972 14.2807 117.15 14.3202 117.314 14.4118C117.477 14.5013 117.611 14.6293 117.714 14.7958L117.442 14.9949C117.281 14.7446 117.068 14.628 116.802 14.6452C116.606 14.6579 116.445 14.7455 116.321 14.9079C116.196 15.0703 116.141 15.2616 116.156 15.4818C116.17 15.702 116.25 15.8845 116.395 16.0295C116.539 16.1745 116.71 16.2406 116.906 16.2279C117.172 16.2107 117.368 16.0676 117.495 15.7987L117.79 15.961C117.71 16.1393 117.594 16.2845 117.444 16.3964C117.294 16.5063 117.122 16.5675 116.929 16.58Z" stroke="white" stroke-width="0.2" mask="url(#path-3-outside-1_1054_14494)"/>
<path d="M114.086 16.7268L113.8 16.7453L113.655 14.5332L113.986 14.5118L114.09 16.1007L115.105 14.4393L115.391 14.4208L115.537 16.6328L115.209 16.6541L115.104 15.062L114.086 16.7268Z" stroke="white" stroke-width="0.2" mask="url(#path-3-outside-1_1054_14494)"/>
<path d="M113.357 14.5526L113.38 14.9015L112.56 14.9546L112.683 16.8177L112.352 16.8392L112.206 14.6271L113.357 14.5526Z" stroke="white" stroke-width="0.2" mask="url(#path-3-outside-1_1054_14494)"/>
<path d="M110.745 16.9878C110.468 17.0057 110.229 16.9086 110.025 16.6966C109.825 16.4845 109.714 16.219 109.693 15.9004C109.672 15.5818 109.747 15.3043 109.918 15.0681C110.092 14.8316 110.317 14.7044 110.594 14.6865C110.74 14.6771 110.878 14.7052 111.007 14.7708C111.139 14.8334 111.244 14.9185 111.32 15.0261L111.298 14.6854L111.64 14.6632L111.786 16.8759L111.443 16.8981L111.421 16.5573C111.359 16.6739 111.267 16.7732 111.144 16.8553C111.024 16.9342 110.891 16.9783 110.745 16.9878ZM110.773 16.6348C110.97 16.6221 111.127 16.5349 111.245 16.3732C111.362 16.2115 111.413 16.0171 111.398 15.7899C111.383 15.5628 111.307 15.3766 111.17 15.2314C111.032 15.0863 110.865 15.0201 110.668 15.0328C110.469 15.0457 110.311 15.133 110.193 15.2947C110.076 15.4564 110.025 15.6508 110.039 15.878C110.054 16.1051 110.131 16.2913 110.268 16.4365C110.406 16.5816 110.574 16.6477 110.773 16.6348Z" stroke="white" stroke-width="0.2" mask="url(#path-3-outside-1_1054_14494)"/>
<path d="M107.214 14.9504L107.514 14.9309L108.278 15.9327L108.908 14.8406L109.208 14.8212L109.353 17.0332L109.022 17.0546L108.918 15.4688L108.319 16.5151L107.583 15.5522L107.687 17.1411L107.359 17.1624L107.214 14.9504Z" stroke="white" stroke-width="0.2" mask="url(#path-3-outside-1_1054_14494)"/>
</svg>
