<svg width="24" height="24" viewBox="0 0 24 24" fill="none" xmlns="http://www.w3.org/2000/svg">
<path d="M20 5C20 4.73478 19.8946 4.48051 19.707 4.29297C19.5195 4.10543 19.2652 4 19 4H5C4.73478 4 4.4805 4.10543 4.29297 4.29297C4.10543 4.4805 4 4.73478 4 5V19C4 19.2652 4.10543 19.5195 4.29297 19.707C4.48051 19.8946 4.73478 20 5 20H19C19.2652 20 19.5195 19.8946 19.707 19.707C19.8946 19.5195 20 19.2652 20 19V5ZM22 19C22 19.7957 21.6837 20.5585 21.1211 21.1211C20.5585 21.6837 19.7957 22 19 22H5C4.20435 22 3.44151 21.6837 2.87891 21.1211C2.3163 20.5585 2 19.7957 2 19V5C2 4.20435 2.3163 3.44152 2.87891 2.87891C3.44152 2.3163 4.20435 2 5 2H19C19.7957 2 20.5585 2.3163 21.1211 2.87891C21.6837 3.44151 22 4.20435 22 5V19Z" fill="#333333"/>
<path d="M9 14C9.55228 14 10 14.4477 10 15C10 15.5523 9.55228 16 9 16H7C6.44772 16 6 15.5523 6 15C6 14.4477 6.44772 14 7 14H9Z" fill="#333333"/>
<path d="M13 11C13.5523 11 14 11.4477 14 12C14 12.5523 13.5523 13 13 13H7C6.44772 13 6 12.5523 6 12C6 11.4477 6.44772 11 7 11H13Z" fill="#333333"/>
<path d="M11 8C11.5523 8 12 8.44772 12 9C12 9.55228 11.5523 10 11 10H7C6.44772 10 6 9.55228 6 9C6 8.44772 6.44772 8 7 8H11Z" fill="#333333"/>
</svg>
