<svg width="24" height="24" viewBox="0 0 24 24" fill="none" xmlns="http://www.w3.org/2000/svg">
<path d="M13 13C13 12.7348 12.8946 12.4805 12.707 12.293C12.5195 12.1054 12.2652 12 12 12C11.7348 12 11.4805 12.1054 11.293 12.293C11.1054 12.4805 11 12.7348 11 13C11 13.2652 11.1054 13.5195 11.293 13.707C11.4805 13.8946 11.7348 14 12 14C12.2652 14 12.5195 13.8946 12.707 13.707C12.8946 13.5195 13 13.2652 13 13ZM15 13C15 13.7957 14.6837 14.5585 14.1211 15.1211C13.5585 15.6837 12.7957 16 12 16C11.2043 16 10.4415 15.6837 9.87891 15.1211C9.3163 14.5585 9 13.7957 9 13C9 12.2043 9.3163 11.4415 9.87891 10.8789C10.4415 10.3163 11.2043 10 12 10C12.7957 10 13.5585 10.3163 14.1211 10.8789C14.6837 11.4415 15 12.2043 15 13Z" fill="#333333"/>
<path d="M15 21V20C15 19.7348 14.8946 19.4805 14.707 19.293C14.5195 19.1054 14.2652 19 14 19H10C9.73478 19 9.48051 19.1054 9.29297 19.293C9.10543 19.4805 9 19.7348 9 20V21C9 21.5523 8.55228 22 8 22C7.44772 22 7 21.5523 7 21V20C7 19.2043 7.3163 18.4415 7.87891 17.8789C8.44151 17.3163 9.20435 17 10 17H14C14.7957 17 15.5585 17.3163 16.1211 17.8789C16.6837 18.4415 17 19.2043 17 20V21C17 21.5523 16.5523 22 16 22C15.4477 22 15 21.5523 15 21Z" fill="#333333"/>
<path d="M18 5C18 4.73478 17.8946 4.48051 17.707 4.29297C17.5429 4.12883 17.3276 4.02757 17.0986 4.00488L17 4C16.7348 4 16.4805 4.10543 16.293 4.29297C16.1054 4.48051 16 4.73478 16 5C16 5.26522 16.1054 5.51949 16.293 5.70703C16.4805 5.89457 16.7348 6 17 6L17.0986 5.99512C17.3276 5.97243 17.5429 5.87117 17.707 5.70703C17.8946 5.51949 18 5.26522 18 5ZM20 5C20 5.79565 19.6837 6.55849 19.1211 7.12109C18.6289 7.61329 17.9835 7.91709 17.2969 7.98535L17 8C16.2044 8 15.4415 7.6837 14.8789 7.12109C14.3163 6.55849 14 5.79565 14 5C14 4.20435 14.3163 3.44151 14.8789 2.87891C15.4415 2.3163 16.2044 2 17 2L17.2969 2.01465C17.9835 2.08291 18.6289 2.38671 19.1211 2.87891C19.6837 3.44151 20 4.20435 20 5Z" fill="#333333"/>
<path d="M20 13V12C20 11.7348 19.8946 11.4805 19.707 11.293C19.5195 11.1054 19.2652 11 19 11H17C16.4477 11 16 10.5523 16 10C16 9.44772 16.4477 9 17 9H19C19.7957 9 20.5585 9.3163 21.1211 9.87891C21.6837 10.4415 22 11.2043 22 12V13C22 13.5523 21.5523 14 21 14C20.4477 14 20 13.5523 20 13Z" fill="#333333"/>
<path d="M8 5C8 4.73478 7.89457 4.48051 7.70703 4.29297C7.54289 4.12883 7.32763 4.02757 7.09863 4.00488L7 4C6.73478 4 6.4805 4.10543 6.29297 4.29297C6.10543 4.4805 6 4.73478 6 5L6.00488 5.09863C6.02757 5.32763 6.12883 5.54289 6.29297 5.70703C6.4805 5.89457 6.73478 6 7 6L7.09863 5.99512C7.32763 5.97243 7.54289 5.87117 7.70703 5.70703C7.89457 5.51949 8 5.26522 8 5ZM10 5C10 5.79565 9.6837 6.55849 9.12109 7.12109C8.6289 7.61329 7.98351 7.91709 7.29688 7.98535L7 8C6.20435 8 5.44152 7.6837 4.87891 7.12109C4.38671 6.6289 4.08291 5.98351 4.01465 5.29688L4 5C4 4.20435 4.3163 3.44152 4.87891 2.87891C5.44152 2.3163 6.20435 2 7 2L7.29688 2.01465C7.98351 2.08291 8.6289 2.38671 9.12109 2.87891C9.6837 3.44151 10 4.20435 10 5Z" fill="#333333"/>
<path d="M2 13V12C2 11.2044 2.3163 10.4415 2.87891 9.87891C3.44151 9.3163 4.20435 9 5 9H7C7.55228 9 8 9.44772 8 10C8 10.5523 7.55228 11 7 11H5C4.73478 11 4.48051 11.1054 4.29297 11.293C4.10543 11.4805 4 11.7348 4 12V13C4 13.5523 3.55228 14 3 14C2.44772 14 2 13.5523 2 13Z" fill="#333333"/>
</svg>
