<svg width="24" height="24" viewBox="0 0 24 24" fill="none" xmlns="http://www.w3.org/2000/svg">
<path d="M14.9854 6.70312C14.9171 6.01649 14.6133 5.3711 14.1211 4.87891C13.6289 4.38671 12.9835 4.08291 12.2969 4.01465L12 4C11.2044 4 10.4415 4.3163 9.87891 4.87891C9.3163 5.44152 9 6.20435 9 7L9.01465 7.29688C9.08291 7.98351 9.38671 8.6289 9.87891 9.12109C10.4415 9.6837 11.2044 10 12 10L12.2969 9.98535C12.9835 9.91709 13.6289 9.61329 14.1211 9.12109C14.6837 8.55848 15 7.79565 15 7L14.9854 6.70312ZM16.9941 7.24805C16.9328 8.48382 16.4142 9.6561 15.5352 10.5352C14.6561 11.4142 13.4838 11.9328 12.248 11.9941L12 12C10.6739 12 9.40253 11.4728 8.46484 10.5352C7.58579 9.6561 7.06719 8.48382 7.00586 7.24805L7 7C7 5.67392 7.52716 4.40253 8.46484 3.46484C9.40253 2.52716 10.6739 2 12 2C13.3261 2 14.5975 2.52716 15.5352 3.46484C16.4728 4.40253 17 5.67392 17 7L16.9941 7.24805Z" fill="#333333"/>
<path d="M5 21V19C5 17.6739 5.52716 16.4025 6.46484 15.4648C7.40253 14.5272 8.67392 14 10 14H10.5C11.0523 14 11.5 14.4477 11.5 15C11.5 15.5523 11.0523 16 10.5 16H10C9.20435 16 8.44152 16.3163 7.87891 16.8789C7.3163 17.4415 7 18.2044 7 19V21C7 21.5523 6.55228 22 6 22C5.44772 22 5 21.5523 5 21Z" fill="#333333"/>
<path d="M17.7998 12.9995C18.0588 12.9995 18.313 13.0721 18.5332 13.2085C18.6984 13.3109 18.8402 13.4458 18.9492 13.605L19.0469 13.772L19.0479 13.7729L19.9004 15.4956L21.8086 15.772H21.8076C22.0002 15.7997 22.184 15.8677 22.3477 15.9702L22.5039 16.0845L22.6436 16.2183C22.7298 16.3141 22.8018 16.4218 22.8584 16.5376L22.9307 16.7173L22.9785 16.9048C23.0123 17.0949 23.0064 17.2911 22.96 17.48C22.8981 17.7317 22.7665 17.9609 22.5811 18.1421L22.5791 18.144L21.1992 19.4839L21.5244 21.3735C21.5687 21.6297 21.5403 21.8935 21.4424 22.1343C21.3445 22.3749 21.1811 22.5833 20.9707 22.7358C20.7603 22.8884 20.5112 22.9784 20.252 22.9966C19.9927 23.0147 19.7336 22.9601 19.5039 22.8384V22.8374L17.7998 21.9458L16.0928 22.8403L16.0899 22.8423C15.8612 22.9613 15.6038 23.0142 15.3467 22.9956C15.0894 22.9769 14.842 22.8868 14.6328 22.7358C14.4236 22.5848 14.26 22.3785 14.1611 22.1401C14.0624 21.9019 14.0323 21.6409 14.0733 21.3862L14.0742 21.3755H14.0752L14.3994 19.4829L13.0215 18.144L13.0225 18.1431C12.8362 17.9623 12.7032 17.7339 12.6406 17.4819C12.5779 17.2292 12.5872 16.9639 12.668 16.7163L12.7412 16.5366C12.8265 16.3624 12.9477 16.2069 13.0977 16.0815C13.2966 15.9152 13.5381 15.8071 13.7949 15.771L15.6992 15.4956L16.5527 13.7729L16.5537 13.772C16.6691 13.54 16.8472 13.3449 17.0674 13.2085L17.2383 13.1177C17.4145 13.0399 17.6058 12.9996 17.7998 12.9995ZM17.2598 16.854C17.1139 17.1486 16.8322 17.3527 16.5068 17.3999L15.3047 17.5737L16.1719 18.4165C16.4084 18.6463 16.5168 18.9782 16.4609 19.3032L16.2549 20.4966L17.3359 19.9312C17.6266 19.7789 17.974 19.7789 18.2647 19.9312L19.3438 20.4966L19.1397 19.3032C19.0838 18.9782 19.1922 18.6463 19.4287 18.4165L20.2949 17.5737L19.0938 17.3999C18.7684 17.3527 18.4867 17.1486 18.3408 16.854L17.7998 15.7622L17.2598 16.854Z" fill="#333333"/>
</svg>
