<svg width="24" height="24" viewBox="0 0 24 24" fill="none" xmlns="http://www.w3.org/2000/svg">
<path d="M18 11V7C18 6.73478 17.8946 6.48051 17.707 6.29297C17.5429 6.12883 17.3276 6.02757 17.0986 6.00488L17 6H5C4.73478 6 4.4805 6.10543 4.29297 6.29297C4.10543 6.4805 4 6.73478 4 7V19C4 19.2652 4.10543 19.5195 4.29297 19.707C4.48051 19.8946 4.73478 20 5 20H11.7949C12.3472 20 12.7949 20.4477 12.7949 21C12.7949 21.5523 12.3472 22 11.7949 22H5C4.20435 22 3.44151 21.6837 2.87891 21.1211C2.3163 20.5585 2 19.7956 2 19V7C2 6.20435 2.3163 5.44152 2.87891 4.87891C3.44152 4.3163 4.20435 4 5 4H17C17.7956 4 18.5585 4.3163 19.1211 4.87891C19.6837 5.44151 20 6.20435 20 7V11C20 11.5523 19.5523 12 19 12C18.4477 12 18 11.5523 18 11Z" fill="#333333"/>
<path d="M17 14C17 13.4477 17.4477 13 18 13C18.5523 13 19 13.4477 19 14V17H22C22.5523 17 23 17.4477 23 18C23 18.5523 22.5523 19 22 19H18C17.4477 19 17 18.5523 17 18V14Z" fill="#333333"/>
<path d="M21 18C21 17.2044 20.6837 16.4415 20.1211 15.8789C19.6289 15.3867 18.9835 15.0829 18.2969 15.0146L18 15C17.2044 15 16.4415 15.3163 15.8789 15.8789C15.3163 16.4415 15 17.2044 15 18L15.0146 18.2969C15.0829 18.9835 15.3867 19.6289 15.8789 20.1211C16.4415 20.6837 17.2044 21 18 21C18.7956 21 19.5585 20.6837 20.1211 20.1211C20.6837 19.5585 21 18.7956 21 18ZM23 18C23 19.3261 22.4728 20.5975 21.5352 21.5352C20.5975 22.4728 19.3261 23 18 23C16.6739 23 15.4025 22.4728 14.4648 21.5352C13.5858 20.6561 13.0672 19.4838 13.0059 18.248L13 18C13 16.6739 13.5272 15.4025 14.4648 14.4648C15.4025 13.5272 16.6739 13 18 13L18.248 13.0059C19.4838 13.0672 20.6561 13.5858 21.5352 14.4648C22.4728 15.4025 23 16.6739 23 18Z" fill="#333333"/>
<path d="M14 7V3C14 2.44772 14.4477 2 15 2C15.5523 2 16 2.44772 16 3V7C16 7.55228 15.5523 8 15 8C14.4477 8 14 7.55228 14 7Z" fill="#333333"/>
<path d="M6 7V3C6 2.44772 6.44772 2 7 2C7.55228 2 8 2.44772 8 3V7C8 7.55228 7.55228 8 7 8C6.44772 8 6 7.55228 6 7Z" fill="#333333"/>
<path d="M19 10C19.5523 10 20 10.4477 20 11C20 11.5523 19.5523 12 19 12H3C2.44772 12 2 11.5523 2 11C2 10.4477 2.44772 10 3 10H19Z" fill="#333333"/>
</svg>
