<svg width="24" height="24" viewBox="0 0 24 24" fill="none" xmlns="http://www.w3.org/2000/svg">
<path d="M3.99992 16V10.414L3.70696 10.707C3.31643 11.0975 2.68342 11.0975 2.29289 10.707C1.90237 10.3165 1.90237 9.68346 2.29289 9.29294L4.29289 7.29294C4.57889 7.00694 5.00906 6.92136 5.38274 7.07614C5.75634 7.23095 5.99992 7.59556 5.99992 7.99997V16C5.99992 16.5523 5.55221 17 4.99992 17C4.44764 17 3.99992 16.5523 3.99992 16Z" fill="#333333"/>
<path d="M8 15V13C8 12.4696 8.21087 11.961 8.58594 11.5859C8.96101 11.2109 9.46957 11 10 11H12V9H9C8.44772 9 8 8.55228 8 8C8 7.44772 8.44772 7 9 7H12L12.1973 7.00977C12.6553 7.05515 13.0858 7.25765 13.4141 7.58594C13.7891 7.96101 14 8.46957 14 9V11C14 11.5304 13.7891 12.039 13.4141 12.4141C13.039 12.7891 12.5304 13 12 13H10V15H13C13.5523 15 14 15.4477 14 16C14 16.5523 13.5523 17 13 17H10C9.46957 17 8.96101 16.7891 8.58594 16.4141C8.21087 16.039 8 15.5304 8 15Z" fill="#333333"/>
<path d="M20 14.5V13.5C20 13.3674 19.9473 13.2403 19.8535 13.1465C19.7831 13.0761 19.6939 13.0289 19.5977 13.0098L19.5 13H18C17.4477 13 17 12.5523 17 12C17 11.4477 17.4477 11 18 11H19.5L19.5977 10.9902C19.6939 10.9711 19.7831 10.9239 19.8535 10.8535C19.9473 10.7597 20 10.6326 20 10.5V9.5C20 9.36739 19.9473 9.24025 19.8535 9.14648C19.7831 9.07608 19.6939 9.02894 19.5977 9.00977L19.5 9H17C16.4477 9 16 8.55228 16 8C16 7.44772 16.4477 7 17 7H19.5C20.163 7 20.7987 7.26358 21.2676 7.73242C21.7364 8.20126 22 8.83696 22 9.5V10.5C22 11.045 21.8189 11.5694 21.4951 12C21.8189 12.4306 22 12.955 22 13.5V14.5C22 15.163 21.7364 15.7987 21.2676 16.2676C20.7987 16.7364 20.163 17 19.5 17H17C16.4477 17 16 16.5523 16 16C16 15.4477 16.4477 15 17 15H19.5L19.5977 14.9902C19.6939 14.9711 19.7831 14.9239 19.8535 14.8535C19.9473 14.7597 20 14.6326 20 14.5Z" fill="#333333"/>
</svg>
