<svg width="24" height="24" viewBox="0 0 24 24" fill="none" xmlns="http://www.w3.org/2000/svg">
<path d="M11.9996 1C13.1391 1 13.9951 1.86343 14.6246 2.83496C15.2069 3.73355 15.7597 4.97494 16.2946 6.52148C17.9541 6.55012 19.322 6.69311 20.3649 6.97363C21.4753 7.27234 22.5565 7.8215 22.8991 8.90918C23.2399 9.99158 22.677 11.0665 21.945 11.96C21.2675 12.7868 20.2569 13.6911 18.9508 14.6719C19.5546 16.6418 19.859 18.2609 19.7711 19.4639C19.7215 20.1425 19.539 20.8131 19.0914 21.3242C18.6142 21.8692 17.9624 22.0903 17.2848 22.0898V22.0889C16.4929 22.0889 15.6057 21.793 14.6754 21.333C13.8796 20.9394 12.9863 20.3913 11.9977 19.7012C11.0097 20.3914 10.1167 20.9403 9.32093 21.334C8.50645 21.7369 7.72506 22.0143 7.01136 22.0771L6.7096 22.0908C6.03213 22.0908 5.38064 21.8693 4.90393 21.3242C4.45688 20.813 4.27563 20.1423 4.2262 19.4639C4.13861 18.2607 4.44124 16.6408 5.04554 14.6709C3.7408 13.6905 2.73023 12.7875 2.05335 11.9609C1.32154 11.0672 0.759166 9.99151 1.10022 8.90918C1.44295 7.8216 2.52476 7.27242 3.63538 6.97363C4.67791 6.6932 6.04512 6.55019 7.70374 6.52148C8.2376 4.97494 8.79034 3.73373 9.37268 2.83496C10.0028 1.86254 10.8594 1.00012 11.9996 1ZM11.9996 3C11.9466 3.00017 11.6117 3.05814 11.0514 3.92285C10.5262 4.7334 9.9628 6.01575 9.37757 7.82422C9.24398 8.23669 8.859 8.51562 8.42542 8.51562H8.35022C6.46127 8.51562 5.07851 8.65682 4.15491 8.90527C3.16694 9.17107 3.02055 9.46916 3.00745 9.51074C2.99252 9.55949 2.94847 9.89622 3.6012 10.6934C4.21331 11.4409 5.26116 12.3698 6.80042 13.4805C7.15322 13.7353 7.30034 14.189 7.16468 14.6025C6.42682 16.8515 6.15298 18.3929 6.22034 19.3184C6.25344 19.7731 6.36137 19.9524 6.40979 20.0078C6.42877 20.0295 6.47964 20.0908 6.7096 20.0908H6.71057L6.84632 20.084C7.1888 20.052 7.7065 19.901 8.43421 19.541C9.24625 19.1393 10.2364 18.52 11.4098 17.666L11.5465 17.583C11.877 17.4156 12.2787 17.4431 12.5856 17.666C13.7596 18.5196 14.75 19.1384 15.5621 19.54C16.3939 19.9513 16.9515 20.09 17.2858 20.0898H17.2867L17.4283 20.0801C17.5412 20.0618 17.5735 20.0229 17.5875 20.0068C17.6359 19.9514 17.7428 19.7723 17.776 19.3184C17.8436 18.3929 17.5702 16.8512 16.8326 14.6016C16.697 14.1878 16.8447 13.7333 17.1979 13.4785C18.7375 12.368 19.7857 11.4398 20.3981 10.6924C21.0535 9.89244 21.0065 9.55634 20.9918 9.50977C20.9787 9.46828 20.8328 9.17092 19.8453 8.90527C18.9218 8.65684 17.5392 8.51563 15.65 8.51562H15.5739C15.1404 8.51562 14.7564 8.23649 14.6227 7.82422C14.0362 6.01591 13.4722 4.73364 12.9469 3.92285C12.3852 3.05588 12.05 3 11.9996 3Z" fill="#333333"/>
</svg>
