<svg width="32" height="32" viewBox="0 0 32 32" fill="none" xmlns="http://www.w3.org/2000/svg">
<g clip-path="url(#clip0_1761_7803)">
<path d="M0 16C0 7.16344 7.16344 0 16 0C24.8366 0 32 7.16344 32 16C32 24.8366 24.8366 32 16 32C7.16344 32 0 24.8366 0 16Z" fill="#2DBE64"/>
<path d="M5.44938 28.0285C5.03134 27.6614 4.63251 27.2729 4.25456 26.8648C4.09618 26.6937 3.94147 26.5192 3.79065 26.3412C1.426 23.5525 0 19.9428 0 16C0 7.16352 7.16352 0 16 0C24.8365 0 32 7.16352 32 16C32 19.9428 30.574 23.5525 28.2093 26.3412C28.0585 26.5192 27.9038 26.6937 27.7454 26.8648C27.3675 27.2729 26.9686 27.6614 26.5506 28.0285H5.44938Z" fill="#2DBE64"/>
<path d="M26.5511 28.0287C23.7346 30.5011 20.0424 32.0002 16.0005 32.0002C11.9587 32.0002 8.26642 30.5011 5.44995 28.0287C7.81913 24.268 11.6621 21.8228 16.0005 21.8228C20.3389 21.8228 24.182 24.268 26.5511 28.0287Z" fill="#DCFAE7"/>
<path d="M15.999 19.1479C19.568 19.1479 22.4612 16.2546 22.4612 12.6856C22.4612 9.11663 19.568 6.22339 15.999 6.22339C12.43 6.22339 9.53674 9.11663 9.53674 12.6856C9.53674 16.2546 12.43 19.1479 15.999 19.1479Z" fill="#DCFAE7"/>
</g>
<defs>
<clipPath id="clip0_1761_7803">
<path d="M0 16C0 7.16344 7.16344 0 16 0C24.8366 0 32 7.16344 32 16C32 24.8366 24.8366 32 16 32C7.16344 32 0 24.8366 0 16Z" fill="white"/>
</clipPath>
</defs>
</svg>
