<svg width="40" height="40" viewBox="0 0 40 40" fill="none" xmlns="http://www.w3.org/2000/svg">
<path d="M6.81173 35.0357C6.28918 34.5767 5.79064 34.0911 5.3182 33.581C5.12022 33.3671 4.92683 33.1489 4.73831 32.9264C1.7825 29.4406 0 24.9285 0 20C0 8.9544 8.9544 0 20 0C31.0456 0 40 8.9544 40 20C40 24.9285 38.2175 29.4406 35.2617 32.9264C35.0731 33.1489 34.8797 33.3671 34.6818 33.581C34.2093 34.0911 33.7108 34.5767 33.1882 35.0357H6.81173Z" fill="#2DBE64"/>
<path d="M33.1892 35.0358C29.6686 38.1262 25.0534 40.0001 20.001 40.0001C14.9487 40.0001 10.3334 38.1263 6.81277 35.0358C9.77424 30.3349 14.578 27.2783 20.001 27.2783C25.424 27.2783 30.2278 30.3349 33.1892 35.0358Z" fill="#DCFAE7"/>
<path d="M19.999 23.9349C24.4603 23.9349 28.0768 20.3183 28.0768 15.8571C28.0768 11.3958 24.4603 7.7793 19.999 7.7793C15.5378 7.7793 11.9212 11.3958 11.9212 15.8571C11.9212 20.3183 15.5378 23.9349 19.999 23.9349Z" fill="#DCFAE7"/>
</svg>
