<svg width="20" height="20" viewBox="0 0 20 20" fill="none" xmlns="http://www.w3.org/2000/svg">
<path d="M15.0001 9.16663V5.83329C15.0001 5.61228 14.9122 5.40038 14.7559 5.2441C14.6192 5.10731 14.4398 5.02294 14.2489 5.00403L14.1667 4.99996H4.16675C3.94573 4.99996 3.73384 5.08782 3.57756 5.2441C3.42128 5.40038 3.33341 5.61228 3.33341 5.83329V15.8333C3.33341 16.0543 3.42127 16.2662 3.57756 16.4225C3.73384 16.5788 3.94573 16.6666 4.16675 16.6666H9.82918C10.2894 16.6666 10.6625 17.0397 10.6625 17.5C10.6625 17.9602 10.2894 18.3333 9.82918 18.3333H4.16675C3.50371 18.3333 2.86801 18.0697 2.39917 17.6009C1.93033 17.132 1.66675 16.4963 1.66675 15.8333V5.83329C1.66675 5.17025 1.93033 4.53456 2.39917 4.06571C2.86801 3.59687 3.50371 3.33329 4.16675 3.33329H14.1667C14.8298 3.33329 15.4655 3.59687 15.9343 4.06571C16.4032 4.53455 16.6667 5.17025 16.6667 5.83329V9.16663C16.6667 9.62686 16.2937 9.99996 15.8334 9.99996C15.3732 9.99996 15.0001 9.62686 15.0001 9.16663Z" fill="#333333"/>
<path d="M14.1667 11.6666C14.1667 11.2064 14.5398 10.8333 15.0001 10.8333C15.4603 10.8333 15.8334 11.2064 15.8334 11.6666V14.1666H18.3334C18.7937 14.1666 19.1667 14.5397 19.1667 15C19.1667 15.4602 18.7937 15.8333 18.3334 15.8333H15.0001C14.5398 15.8333 14.1667 15.4602 14.1667 15V11.6666Z" fill="#333333"/>
<path d="M17.5001 15C17.5001 14.3369 17.2365 13.7012 16.7677 13.2324C16.3575 12.8222 15.8197 12.569 15.2475 12.5122L15.0001 12.5C14.337 12.5 13.7013 12.7635 13.2325 13.2324C12.7637 13.7012 12.5001 14.3369 12.5001 15L12.5123 15.2474C12.5692 15.8196 12.8223 16.3574 13.2325 16.7675C13.7013 17.2364 14.337 17.5 15.0001 17.5C15.6631 17.5 16.2988 17.2364 16.7677 16.7675C17.2365 16.2987 17.5001 15.663 17.5001 15ZM19.1667 15C19.1667 16.105 18.7274 17.1645 17.946 17.9459C17.1646 18.7273 16.1052 19.1666 15.0001 19.1666C13.895 19.1666 12.8355 18.7273 12.0541 17.9459C11.3216 17.2134 10.8894 16.2365 10.8383 15.2067L10.8334 15C10.8334 13.8949 11.2727 12.8354 12.0541 12.054C12.8355 11.2726 13.895 10.8333 15.0001 10.8333L15.2068 10.8382C16.2366 10.8893 17.2135 11.3215 17.946 12.054C18.7274 12.8354 19.1667 13.8949 19.1667 15Z" fill="#333333"/>
<path d="M11.6667 5.83329V2.49996C11.6667 2.03972 12.0398 1.66663 12.5001 1.66663C12.9603 1.66663 13.3334 2.03972 13.3334 2.49996V5.83329C13.3334 6.29353 12.9603 6.66663 12.5001 6.66663C12.0398 6.66663 11.6667 6.29353 11.6667 5.83329Z" fill="#333333"/>
<path d="M5.00008 5.83329V2.49996C5.00008 2.03972 5.37318 1.66663 5.83341 1.66663C6.29365 1.66663 6.66675 2.03972 6.66675 2.49996V5.83329C6.66675 6.29353 6.29365 6.66663 5.83341 6.66663C5.37318 6.66663 5.00008 6.29353 5.00008 5.83329Z" fill="#333333"/>
<path d="M15.8334 8.33329C16.2937 8.33329 16.6667 8.70639 16.6667 9.16663C16.6667 9.62686 16.2937 9.99996 15.8334 9.99996H2.50008C2.03984 9.99996 1.66675 9.62686 1.66675 9.16663C1.66675 8.70639 2.03984 8.33329 2.50008 8.33329H15.8334Z" fill="#333333"/>
</svg>
