<svg width="20" height="20" viewBox="0 0 20 20" fill="none" xmlns="http://www.w3.org/2000/svg">
<path d="M16.6586 9.67206C16.621 8.90862 16.4521 8.15643 16.1589 7.44875C15.8239 6.63998 15.3335 5.90468 14.7144 5.28566C14.0954 4.66665 13.3601 4.1762 12.5514 3.84117C11.8437 3.54803 11.0915 3.37909 10.328 3.34149L10.0001 3.33335C9.1246 3.33335 8.25765 3.50613 7.44881 3.84117C6.64004 4.1762 5.90474 4.66665 5.28573 5.28566C4.66671 5.90468 4.17626 6.63998 3.84123 7.44875C3.5062 8.25759 3.33341 9.12454 3.33341 10L3.34155 10.328C3.37915 11.0914 3.5481 11.8436 3.84123 12.5513C4.17626 13.3601 4.66671 14.0954 5.28573 14.7144C5.90474 15.3334 6.64004 15.8238 7.44881 16.1589C8.25765 16.4939 9.1246 16.6667 10.0001 16.6667L10.328 16.6585C11.0915 16.6209 11.8437 16.452 12.5514 16.1589C13.3601 15.8238 14.0954 15.3334 14.7144 14.7144C15.3335 14.0954 15.8239 13.3601 16.1589 12.5513C16.494 11.7425 16.6667 10.8755 16.6667 10L16.6586 9.67206ZM18.3236 10.4102C18.2766 11.3644 18.0659 12.3048 17.6995 13.1893C17.2807 14.2003 16.6666 15.119 15.8928 15.8928C15.119 16.6666 14.2004 17.2806 13.1894 17.6994C12.3048 18.0658 11.3645 18.2766 10.4102 18.3236L10.0001 18.3334C8.90573 18.3334 7.82184 18.1182 6.81079 17.6994C5.79978 17.2806 4.88114 16.6666 4.10734 15.8928C3.33354 15.119 2.71949 14.2003 2.3007 13.1893C1.93431 12.3048 1.72353 11.3644 1.67651 10.4102L1.66675 10C1.66675 8.90567 1.88191 7.82178 2.3007 6.81073C2.71949 5.79972 3.33354 4.88108 4.10734 4.10728C4.88114 3.33348 5.79978 2.71943 6.81079 2.30064C7.82184 1.88185 8.90573 1.66669 10.0001 1.66669L10.4102 1.67645C11.3645 1.72347 12.3048 1.93425 13.1894 2.30064C14.2004 2.71943 15.119 3.33348 15.8928 4.10728C16.6666 4.88108 17.2807 5.79972 17.6995 6.81073C18.1183 7.82178 18.3334 8.90567 18.3334 10L18.3236 10.4102Z" fill="#333333"/>
<path d="M9.16675 13.3334V8.67841L8.92261 8.92255C8.59717 9.24798 8.06966 9.24798 7.74422 8.92255C7.41878 8.59711 7.41878 8.0696 7.74422 7.74416L9.41089 6.07749C9.64922 5.83916 10.0077 5.76785 10.3191 5.89683C10.6304 6.02584 10.8334 6.32967 10.8334 6.66669V13.3334C10.8334 13.7936 10.4603 14.1667 10.0001 14.1667C9.53984 14.1667 9.16675 13.7936 9.16675 13.3334Z" fill="#333333"/>
</svg>
