<svg width="24" height="24" viewBox="0 0 24 24" fill="none" xmlns="http://www.w3.org/2000/svg">
<path d="M13 12C13 11.7348 12.8946 11.4805 12.707 11.293C12.5195 11.1054 12.2652 11 12 11C11.7348 11 11.4805 11.1054 11.293 11.293C11.1054 11.4805 11 11.7348 11 12C11 12.2652 11.1054 12.5195 11.293 12.707C11.4805 12.8946 11.7348 13 12 13C12.2652 13 12.5195 12.8946 12.707 12.707C12.8946 12.5195 13 12.2652 13 12ZM15 12C15 12.7957 14.6837 13.5585 14.1211 14.1211C13.5585 14.6837 12.7957 15 12 15C11.2043 15 10.4415 14.6837 9.87891 14.1211C9.3163 13.5585 9 12.7957 9 12C9 11.2043 9.3163 10.4415 9.87891 9.87891C10.4415 9.3163 11.2043 9 12 9C12.7957 9 13.5585 9.3163 14.1211 9.87891C14.6837 10.4415 15 11.2043 15 12Z" fill="#8892A7"/>
<path d="M11.9999 5C16.0554 5 19.3377 7.28597 21.8574 11.4854C22.0474 11.802 22.0474 12.198 21.8574 12.5146C19.3377 16.714 16.0554 19 11.9999 19C7.94442 19 4.66218 16.714 2.14251 12.5146C1.9525 12.198 1.9525 11.802 2.14251 11.4854C4.66218 7.28597 7.94442 5 11.9999 5ZM11.9999 7C9.00117 7 6.39097 8.55916 4.17766 12C6.39097 15.4408 9.00117 17 11.9999 17C14.9986 17 17.608 15.4405 19.8212 12C17.608 8.55947 14.9986 7 11.9999 7Z" fill="#8892A7"/>
</svg>
